<?xml version="1.0" encoding="UTF-8" standalone="no"?>
<svg width="716.521" height="544.316" viewBox="0 0 716.521 544.316" version="1.1" xmlns="http://www.w3.org/2000/svg">
    <g>
        <ellipse fill="#003cff" cx="357.82339" cy="248.21625" style="display:inline;stroke-width:1.00099" rx="222.90189"
                 ry="222.461"/>
    </g>
    <g>
        <path fill="#ffffff"
              d="m 357.33443,4.336002 c -135.309,0 -244.999,109.688998 -244.999,244.998998 0,135.309 109.69,244.998 244.999,244.998 135.311,-0.001 244.999,-109.689 244.999,-244.999 -10e-4,-135.309 -109.688,-244.997998 -244.999,-244.997998 z m 0,477.141998 c -128.21,0 -232.146,-103.936 -232.146,-232.145 0,-128.212 103.936,-232.145998 232.146,-232.145998 128.211,0 232.147,103.935998 232.147,232.145998 0,128.211 -103.936,232.145 -232.147,232.145 z"
              style="display:inline"/>
        <path fill="#ffffff"
              d="m 151.09887,57.428489 c 21.773,-17.855 46.605,-56.034 46.605,-56.034 0,0 -7.954,0.439 -18.56,6.272 -13.205,7.263 -29.636,20.235 -29.636,20.235 l 1.607,-16.064 c 0,0 -13.084,10.365 -21.433,24.08 -8.519,13.995 -12.305,31.347 -12.305,31.347 0,0 15.685,4.954 33.722,-9.836 z m -41.294,52.030001 c 12.357,-11.183001 21.228,-26.934001 21.228,-26.934001 0,0 -7.547,3.756 -14.577,4.891 -5.109,0.824 -10.324,-0.874 -10.324,-0.874 0,0 -2.712,-5.653 -2.166,-15.294 0.649,-11.483 4.575,-27.279 4.575,-27.279 0,0 -14.635002,15.79 -20.965002,34.781 -1.778,5.333 -3.11,10.877 -4.116,16.247 -3.877,18.063001 -3.034,33.313001 -3.034,33.313001 0,0 16.446,-7.151 29.379002,-18.851 z m -23.132002,58.855 c 10.03,-11.054 16.245002,-27.952 16.245002,-27.952 0,0 -8.494002,4.74 -17.225002,6.756 -6.645,1.533 -14.102,0.475 -14.102,0.475 0,0 -2.334,-6.875 -3.264,-16.712 -1.658,-17.534 -0.753,-45.142001 -0.753,-45.142001 0,0 -15.11,27.465001 -15.736,52.282001 -0.578,22.899 11.721,45.717 11.721,45.717 0,0 13.472,-4.798 23.114,-15.424 z m -28.739,69.244 c 0,0 14.694,-11.08 22.624,-24.018 7.308,-11.923 7.901,-25.785 7.901,-25.785 0,0 -7.087,3.872 -14.625,6.803 -6.893,2.681 -14.293,4.443 -14.293,4.443 0,0 -8.199,-8.954 -13.241,-20.719 -7.651,-17.854 -13.267,-41.133 -13.267,-41.133 0,0 -8.123,31.171 -1.843,56.493 6.17,24.878 26.744,43.916 26.744,43.916 z m 4.017,61.048 c 0,0 10.132,-10.682 15.593,-24.14 5.775,-14.232 6.899,-31.286 6.899,-31.286 l -23.295,20.885 c 0,0 -12.515,-8.291 -23.265,-22.514 -14.721,-19.478 -28.9479998,-46.567 -28.9479998,-46.567 0,0 -1.793,42.393 11.5679998,68.505 13.146,25.695 41.448,35.117 41.448,35.117 z m 15.262,56.229 c 0,0 8.945,-10.359 11.752,-23.695 3.534,-16.786 1.1,-37.354 1.1,-37.354 0,0 -4.074,8.522 -9.269,16.313 -4.375,6.563 -10.01,12.605 -10.01,12.605 0,0 -14.606,-5.882 -28.867,-19.333 -20.071,-18.93 -42.62400035,-49.749 -42.62400035,-49.749 0,0 2.08000005,45.965 21.19000035,70.45 19.444,24.913 56.728,30.763 56.728,30.763 z m 31.328002,53.819 c 0,0 5.442,-14.493 5.25,-30.52 -0.21,-17.634 -6.053,-36.954 -6.053,-36.954 l -18.476002,35.344 c 0,0 -17.352,0.557 -34.688,-8.558 -21.227,-11.161 -43.229,-32.41 -43.229,-32.41 0,0 14.399,40.173 39.345,58.935 23.617,17.761 57.851002,14.163 57.851002,14.163 z m 37.754,46.59 c 0,0 2.557,-16.334 0.138,-31.219 -2.778,-17.092 -10.581,-33.042 -10.581,-33.042 0,0 -1.479,11.671 -4.98,22.169 -2.861,8.586 -7.873,16.387 -7.873,16.387 0,0 -9.903,1.464 -22.521,0.346 -18.101002,-1.604 -40.937002,-5.968 -40.937002,-5.968 0,0 12.333,17.062 34.543,25.082 21.139002,7.632 52.211002,6.245 52.211002,6.245 z m 17.672,-28.115 -3.213,40.967 c 0,0 -9.306,3.661 -21.715,4.172 -16.357,0.672 -36.924,-1.763 -36.924,-1.763 0,0 17.991,15.352 39.434,20.313 21.928,5.078 47.32,-0.23 47.32,-0.23 0,0 2.709,-14.486 -3.015,-28.338 -6.657,-16.101 -21.887,-35.121 -21.887,-35.121 z m 150.628,84.395 c -13.722,-7.578 -34.153,-12.1 -34.153,-12.1 0,0 -20.579,-3.357 -40.101,-9.053 -19.029,-5.551 -37.014,-13.439 -37.014,-13.439 0,0 4.038,10.051 1.867,17.001 -1.812,5.797 -9.899,8.704 -9.899,8.704 l 17.671,5.623 c 0,0 44.616,1.298 70.702,5.541 23.138,3.763 28.101,10.522 28.101,10.522 0,0 -2.824,2.97 -12.764,4.572 -14.19,2.289 -35.433,1.854 -35.433,1.854 l 15.262,14.459 c 0,0 16.727,2.044 31.172,-2.143 13.213,-3.83 24.254,-13.923 24.254,-13.923 0,0 -6.487,-10.342 -19.665,-17.618 z m 249.418,-454.095001 c 18.037,14.79 33.721,9.834 33.721,9.834 0,0 -3.785,-17.353 -12.305,-31.347 -8.348,-13.716 -21.432,-24.08 -21.432,-24.08 l 1.605,16.064 c 0,0 -16.432,-12.973 -29.637,-20.235 -10.604,-5.833 -18.559,-6.272 -18.559,-6.272 0,0 24.834,38.181 46.607,56.036 z m 41.295,52.030001 c 12.932,11.699 29.377,18.853 29.377,18.853 0,0 0.844,-15.231 -3.025,-33.282001 -1.006,-5.379 -2.342,-10.936 -4.123,-16.279 -6.332,-18.992 -20.965,-34.781 -20.965,-34.781 0,0 3.924,15.796 4.574,27.279 0.545,9.642 -2.166,15.294 -2.166,15.294 0,0 -5.215,1.698 -10.324,0.874 -7.029,-1.135 -14.576,-4.891 -14.576,-4.891 0,0 8.869,15.751 21.228,26.933001 z m 6.885,30.902 c 0,0 6.217,16.898 16.244,27.952 9.645,10.626 23.115,15.424 23.115,15.424 0,0 12.297,-22.817 11.721,-45.717 -0.625,-24.818 -15.736,-52.282001 -15.736,-52.282001 0,0 0.906,27.606001 -0.752,45.142001 -0.932,9.837 -3.266,16.712 -3.266,16.712 0,0 -7.457,1.06 -14.102,-0.475 -8.728,-2.015 -17.224,-6.756 -17.224,-6.756 z m 29.082,54.197 c -7.535,-2.931 -14.623,-6.803 -14.623,-6.803 0,0 0.594,13.862 7.9,25.785 7.93,12.938 22.623,24.018 22.623,24.018 0,0 20.576,-19.038 26.744,-43.916 6.279,-25.322 -1.842,-56.493 -1.842,-56.493 0,0 -5.617,23.278 -13.27,41.132 -5.043,11.766 -13.24,20.72 -13.24,20.72 0,0 -7.397,-1.763 -14.292,-4.443 z m 12.689,69.508 -23.295,-20.885 c 0,0 1.121,17.054 6.898,31.286 5.459,13.458 15.592,24.14 15.592,24.14 0,0 28.303,-9.422 41.449,-35.116 13.359,-26.113 11.566,-68.505 11.566,-68.505 0,0 -14.227,27.089 -28.947,46.567 -10.749,14.221 -23.263,22.513 -23.263,22.513 z m 19.229,39.306 c -14.264,13.451 -28.869,19.333 -28.869,19.333 0,0 -5.637,-6.044 -10.012,-12.605 -5.191,-7.79 -9.268,-16.313 -9.268,-16.313 0,0 -2.436,20.566 1.1,37.354 2.809,13.336 11.752,23.695 11.752,23.695 0,0 37.285,-5.851 56.73,-30.763 19.111,-24.484 21.189,-70.45 21.189,-70.45 0,0 -22.554,30.819 -42.622,49.749 z m -47.344,73.152 -18.477,-35.344 c 0,0 -5.842,19.32 -6.053,36.954 -0.191,16.025 5.252,30.52 5.252,30.52 0,0 34.232,3.598 57.85,-14.163 24.945,-18.762 39.346,-58.935 39.346,-58.935 0,0 -22.004,21.249 -43.229,32.41 -17.337,9.115 -34.689,8.558 -34.689,8.558 z m -33.738,53.015 c 0,0 -5.01,-7.801 -7.871,-16.387 -3.5,-10.498 -4.98,-22.169 -4.98,-22.169 0,0 -7.803,15.95 -10.58,33.042 -2.42,14.885 0.137,31.219 0.137,31.219 0,0 31.072,1.389 52.213,-6.245 22.211,-8.021 34.543,-25.082 34.543,-25.082 0,0 -22.838,4.362 -40.939,5.968 -12.619,1.117 -22.523,-0.346 -22.523,-0.346 z m -16.039,42.729 c -12.41,-0.511 -21.715,-4.172 -21.715,-4.172 l -3.213,-40.967 c 0,0 -15.23,19.02 -21.887,35.121 -5.725,13.852 -3.016,28.338 -3.016,28.338 0,0 25.391,5.31 47.318,0.23 21.443,-4.963 39.436,-20.313 39.436,-20.313 0,0 -20.566,2.435 -36.923,1.763 z m -66.154,21.665 c -2.172,-6.95 1.867,-17.001 1.867,-17.001 0,0 -17.986,7.89 -37.016,13.439 -19.521,5.694 -40.1,9.053 -40.1,9.053 0,0 -20.432,4.521 -34.152,12.1 -13.178,7.276 -19.668,17.621 -19.668,17.621 0,0 11.043,10.093 24.254,13.923 14.445,4.187 31.174,2.143 31.174,2.143 l 15.262,-14.459 c 0,0 -21.244,0.436 -35.436,-1.854 -9.938,-1.604 -12.762,-4.572 -12.762,-4.572 0,0 4.963,-6.761 28.102,-10.522 26.086,-4.243 70.701,-5.541 70.701,-5.541 l 17.672,-5.623 c 0.002,-0.003 -8.086,-2.91 -9.898,-8.707 z"
              style="display:inline"/>
    </g>
    <g>
        <circle style="fill:#ffffff;stroke:none;stroke-width:0.377953;stroke-linecap:round" cx="280.686" cy="60.732441"
                r="8.7290077"/>
        <circle style="fill:#ffffff;stroke:none;stroke-width:0.222723;stroke-linecap:round" cx="336.48932"
                cy="319.79694" r="5.1438794"/>
        <circle style="fill:#ffffff;stroke:none;stroke-width:0.222723;stroke-linecap:round" cx="296.89703"
                cy="339.74896" r="5.1438794"/>
        <circle style="fill:#ffffff;stroke:none;stroke-width:0.222723;stroke-linecap:round" cx="301.26154"
                cy="299.53314" r="5.1438794"/>
        <circle style="fill:#ffffff;stroke:none;stroke-width:0.222723;stroke-linecap:round" cx="337.11282"
                cy="290.18066" r="5.1438794"/>
        <circle style="fill:#ffffff;stroke:none;stroke-width:0.222723;stroke-linecap:round" cx="358.00009"
                cy="296.72742" r="5.1438794"/>
        <circle style="fill:#ffffff;stroke:none;stroke-width:0.222723;stroke-linecap:round" cx="387.30463"
                cy="316.36768" r="5.1438794"/>
        <circle style="fill:#ffffff;stroke:none;stroke-width:0.425198;stroke-linecap:round" cx="373.58759" cy="286.1279"
                r="9.8201332"/>
        <circle style="fill:#ffffff;stroke:none;stroke-width:0.222723;stroke-linecap:round" cx="404.76263"
                cy="287.68665" r="5.1438794"/>
        <circle style="fill:#ffffff;stroke:none;stroke-width:0.32396;stroke-linecap:round" cx="389.79861" cy="60.10894"
                r="7.4820065"/>
        <circle style="fill:#ffffff;stroke:none;stroke-width:0.32396;stroke-linecap:round" cx="430.0144" cy="50.756432"
                r="7.4820065"/>
        <circle style="fill:#ffffff;stroke:none;stroke-width:0.24297;stroke-linecap:round" cx="489.87042" cy="92.219223"
                r="5.611505"/>
        <circle style="fill:#ffffff;stroke:none;stroke-width:0.24297;stroke-linecap:round" cx="474.5947" cy="121.83549"
                r="5.611505"/>
        <circle style="fill:#ffffff;stroke:none;stroke-width:0.431947;stroke-linecap:round" cx="490.49399"
                cy="148.02251" r="9.9760084"/>
        <circle style="fill:#ffffff;stroke:none;stroke-width:0.431947;stroke-linecap:round" cx="547.85602"
                cy="169.22153" r="9.9760084"/>
        <circle style="fill:#ffffff;stroke:none;stroke-width:0.357706;stroke-linecap:round" cx="523.07184" cy="205.8522"
                r="8.2613821"/>
        <circle style="fill:#ffffff;stroke:none;stroke-width:0.357706;stroke-linecap:round" cx="549.7265" cy="220.03683"
                r="8.2613821"/>
        <circle style="fill:#ffffff;stroke:none;stroke-width:0.24297;stroke-linecap:round" cx="512.62823" cy="135.55251"
                r="5.611505"/>
        <circle style="fill:#ffffff;stroke:none;stroke-width:0.24297;stroke-linecap:round" cx="500.15823" cy="162.05128"
                r="5.611505"/>
        <circle style="fill:#ffffff;stroke:none;stroke-width:0.24297;stroke-linecap:round" cx="465.55392" cy="172.65077"
                r="5.611505"/>
        <circle style="fill:#ffffff;stroke:none;stroke-width:0.24297;stroke-linecap:round" cx="487.99994" cy="185.1208"
                r="5.611505"/>
        <circle style="fill:#ffffff;stroke:none;stroke-width:0.24297;stroke-linecap:round" cx="474.5947" cy="215.98407"
                r="5.611505"/>
        <circle style="fill:#ffffff;stroke:none;stroke-width:0.24297;stroke-linecap:round" cx="489.24695" cy="218.47809"
                r="5.611505"/>
        <circle style="fill:#ffffff;stroke:none;stroke-width:0.24297;stroke-linecap:round" cx="504.83447" cy="179.82104"
                r="5.611505"/>
        <circle style="fill:#ffffff;stroke:none;stroke-width:0.24297;stroke-linecap:round" cx="533.82721" cy="189.48531"
                r="5.611505"/>
        <circle style="fill:#ffffff;stroke:none;stroke-width:0.276716;stroke-linecap:round" cx="442.01678"
                cy="170.93617" r="6.3908806"/>
        <circle style="fill:#ffffff;stroke:none;stroke-width:0.24297;stroke-linecap:round" cx="448.09592" cy="196.34383"
                r="5.611505"/>
        <circle style="fill:#ffffff;stroke:none;stroke-width:0.249719;stroke-linecap:round" cx="532.11267"
                cy="264.77301" r="5.7673802"/>
        <circle style="fill:#ffffff;stroke:none;stroke-width:0.344207;stroke-linecap:round" cx="545.51788"
                cy="317.77057" r="7.9496322"/>
        <circle style="fill:#ffffff;stroke:none;stroke-width:0.24297;stroke-linecap:round" cx="511.06949" cy="373.41797"
                r="5.611505"/>
        <circle style="fill:#ffffff;stroke:none;stroke-width:0.24297;stroke-linecap:round" cx="388.23987" cy="452.2908"
                r="5.611505"/>
        <circle style="fill:#ffffff;stroke:none;stroke-width:0.24297;stroke-linecap:round" cx="238.91148" cy="418.62177"
                r="5.611505"/>
        <circle style="fill:#ffffff;stroke:none;stroke-width:0.24297;stroke-linecap:round" cx="232.67647" cy="387.75851"
                r="5.611505"/>
        <circle style="fill:#ffffff;stroke:none;stroke-width:0.24297;stroke-linecap:round" cx="214.90671" cy="383.70575"
                r="5.611505"/>
        <circle style="fill:#ffffff;stroke:none;stroke-width:0.24297;stroke-linecap:round" cx="176.87317" cy="353.77771"
                r="5.611505"/>
        <circle style="fill:#ffffff;stroke:none;stroke-width:0.418448;stroke-linecap:round" cx="225.50621"
                cy="346.91922" r="9.664259"/>
        <circle style="fill:#ffffff;stroke:none;stroke-width:0.222723;stroke-linecap:round" cx="229.40311" cy="296.2598"
                r="5.1438794"/>
        <circle style="fill:#ffffff;stroke:none;stroke-width:0.222723;stroke-linecap:round" cx="212.10097"
                cy="247.78259" r="5.1438794"/>
        <circle style="fill:#ffffff;stroke:none;stroke-width:0.222723;stroke-linecap:round" cx="163.77966"
                cy="187.92654" r="5.1438794"/>
        <circle style="fill:#ffffff;stroke:none;stroke-width:0.310461;stroke-linecap:round" cx="168.14417"
                cy="305.45639" r="7.1702566"/>
        <circle style="fill:#ffffff;stroke:none;stroke-width:0.330708;stroke-linecap:round" cx="164.55904"
                cy="282.23102" r="7.6378818"/>
        <circle style="fill:#ffffff;stroke:none;stroke-width:0.330708;stroke-linecap:round" cx="181.86118"
                cy="223.15433" r="7.6378818"/>
        <circle style="fill:#ffffff;stroke:none;stroke-width:0.222723;stroke-linecap:round" cx="437.80817"
                cy="274.28137" r="5.1438794"/>
        <circle style="fill:#ffffff;stroke:none;stroke-width:0.317212;stroke-linecap:round" cx="406.63312"
                cy="254.64111" r="7.3261313"/>
        <circle style="fill:#ffffff;stroke:none;stroke-width:0.222723;stroke-linecap:round" cx="358.93533"
                cy="196.65555" r="5.1438794"/>
        <path style="fill:#ffffff;stroke-width:0.377953;stroke-linecap:round"
              d="m 470.9375,306.11286 c 0,0 -31.93165,0.24427 -37.54135,5.98434 -5.35945,5.48401 -5.58879,36.7147 -5.58879,36.7147 0,0 -0.21345,-32.76402 -6.14968,-37.48624 -5.84175,-4.64707 -36.88002,-5.25812 -36.88002,-5.25812 0,0 31.45794,-0.3874 37.21069,-5.59858 5.30702,-4.80741 5.86434,-37.43113 5.86434,-37.43113 0,0 -0.0297,34.60061 6.85232,38.22335 9.03621,4.75673 36.23249,4.85168 36.23249,4.85168 z"/>
    </g>
    <g>
        <path d="m 239.45334,134.37119 v 235 q 0,20 20,20 h 170 q 20,0 20,-20 0,-20 -20,-20 h -130 q -20,0 -20,-20 v -40 q 0,-20 20,-20 h 50 q 20,0 20,-20 0,-20 -20,-20 h -50 q -20,0 -20,-20 v -35 q 0,-20 20,-20 h 35 q 20,0 20,-20 0,-20 -20,-20 h -75 q -20,0 -20,20 z"
              style="fill:#ffffff"/>
        <path d="m 219.21972,136.32013 c 83.23607,-89.284696 212.13148,-0.48169 157.21172,102.88087 103.202,-15.79073 151.6448,142.4916 4.65688,182.42345 C 581.14925,399.2498 513.51667,197.87742 410.31467,213.66815 455.33176,108.91385 298.12003,6.032984 219.21972,136.32013 Z"
              style="fill:#ffffff"/>
    </g>
</svg>
